<?xml version="1.0" encoding="utf-8"?>
<!-- Generator: Adobe Illustrator 17.1.0, SVG Export Plug-In . SVG Version: 6.00 Build 0)  -->
<!DOCTYPE svg PUBLIC "-//W3C//DTD SVG 1.1//EN" "http://www.w3.org/Graphics/SVG/1.1/DTD/svg11.dtd">
<svg version="1.1" id="Layer_1" xmlns="http://www.w3.org/2000/svg" xmlns:xlink="http://www.w3.org/1999/xlink" x="0px" y="0px"
	 viewBox="0 0 143.5 229.2" enable-background="new 0 0 143.5 229.2" xml:space="preserve">
<path fill="#505050" d="M142.6,114.7c0.3,6.8-2.2,12.5-7.1,17.3c-29.8,29.8-59.6,59.6-89.4,89.4c-9.7,9.7-22.5,9.7-32.2,0.1
	c-2.2-2.2-4.4-4.3-6.5-6.5c-8.8-9-8.8-22,0.1-30.9c22.1-22.2,44.3-44.3,66.5-66.5c3.3-3.3,3.2-2.5-0.1-5.8
	C52.1,89.9,30.2,68.1,8.4,46.3c-10.2-10.2-10.2-22.8,0.1-33c2-2,4-4.1,6.1-6.1c8.8-8.6,21.9-8.7,30.7,0c11.1,10.9,22,22,33,33
	c19,19,38,38,57,57C140.3,102,142.9,107.7,142.6,114.7z"/>
</svg>
